<?xml version="1.0" encoding="utf-8"?>
<!-- Generator: Adobe Illustrator 25.3.0, SVG Export Plug-In . SVG Version: 6.00 Build 0)  -->
<svg version="1.1" id="Layer_1" xmlns="http://www.w3.org/2000/svg" xmlns:xlink="http://www.w3.org/1999/xlink" x="0px" y="0px"
	 viewBox="0 0 28 28" style="enable-background:new 0 0 28 28;" xml:space="preserve">
<style type="text/css">
	.st0{fill:#FFFFFF;}
	.st1{fill:#269D56;}
</style>
<circle class="st0" cx="14" cy="14" r="14"/>
<g>
	<path class="st1" d="M21,8.5c0.3,0.4,0.5,0.8,0.8,1.2c0.2,0.4,0.4,0.8,0.5,1.2c0.1,0.2,0,0.4-0.2,0.5c-0.2,0.1-0.4,0-0.4-0.2
		c-0.4-1.1-1-2.1-1.8-2.9c-0.9-1-2.1-1.7-3.4-2.1c-1-0.3-2.1-0.5-3.1-0.4c-1.3,0.1-2.5,0.5-3.6,1.1c-1.5,0.9-2.7,2.2-3.4,3.8
		c-0.4,0.8-0.6,1.6-0.6,2.5c-0.1,1.2,0,2.3,0.4,3.5c0.2,0.5,0.5,1.1,0.7,1.6c0.1,0.1,0.1,0.3,0,0.4c-0.1,0.1-0.2,0.2-0.3,0.1
		c-0.1,0-0.2-0.1-0.3-0.2c-0.4-0.7-0.7-1.4-0.9-2.1c0-0.1-0.1-0.2-0.1-0.3c0,0-0.1,0-0.1,0c-0.6,0.5-1.2,1.1-1.5,1.8
		c-0.1,0.1-0.1,0.2-0.1,0.4c-0.1,0.4,0,0.6,0.4,0.7c0.3,0.1,0.7,0.2,1,0.2c0.6,0,1.2-0.1,1.8-0.2c0.9-0.2,1.8-0.5,2.7-0.7
		c0.1,0,0.2-0.1,0.2-0.2c0.2-1.2,0.5-2.3,1.2-3.3c0.9-1.2,2-2,3.5-2.2c1-0.2,1.9-0.1,2.9,0.1c0.8,0.2,1.6,0.4,2.4,0.8
		c0.2,0.1,0.3,0.2,0.3,0.4c-0.3,1.3-0.8,2.5-1.5,3.5c-0.7,1.1-1.6,1.9-2.8,2.3c-0.9,0.3-1.8,0.4-2.8,0.3c-1-0.2-2-0.5-2.9-1
		c-0.1,0-0.2,0-0.3,0c-0.8,0.2-1.5,0.4-2.3,0.6c-1,0.2-2,0.4-3,0.3c-0.3,0-0.7-0.1-1-0.3c-0.6-0.3-0.8-0.9-0.6-1.5
		c0.2-0.6,0.6-1.2,1.1-1.6c0.3-0.3,0.7-0.7,1-1c0.1-0.1,0.1-0.1,0.1-0.3c-0.2-1.3-0.1-2.6,0.3-3.9c0.3-1,0.8-1.9,1.4-2.7
		c1-1.3,2.3-2.3,3.9-2.9c1.2-0.5,2.5-0.7,3.8-0.6c1.6,0.1,3.1,0.6,4.4,1.6c0.5,0.3,0.9,0.7,1.3,1.1c0.1,0.1,0.2,0.1,0.3,0.1
		c1-0.2,1.9-0.3,2.9-0.2c0.3,0,0.6,0.1,0.9,0.3c0.6,0.3,0.8,1,0.5,1.6c-0.2,0.5-0.6,1-0.9,1.4c-0.9,1-1.9,1.8-3,2.5
		c-0.2,0.1-0.4,0.1-0.5-0.1c-0.1-0.2-0.1-0.4,0.1-0.5c0.9-0.6,1.8-1.3,2.6-2.1c0.4-0.4,0.8-0.8,1-1.4c0.3-0.6,0.1-0.9-0.5-1
		c-0.6-0.2-1.1-0.1-1.7-0.1c-0.3,0-0.6,0.1-1,0.1C21.1,8.5,21.1,8.5,21,8.5z M10.5,18c0.1,0,0.1,0,0.1-0.1c0.7-0.4,1.4-0.7,2.2-1.1
		c0.2-0.1,0.2-0.2,0.2-0.3c0.1-0.7,0.2-1.4,0.2-2.2c0-0.2,0-0.4,0.1-0.7c-0.4,0.1-1.2,0.7-1.8,1.5C11,16,10.6,17,10.5,18z M15.9,19
		C15.8,19,15.8,18.9,15.9,19c-0.9-0.6-1.7-1-2.6-1.5c-0.1,0-0.2,0-0.2,0c-0.7,0.3-1.4,0.7-2.1,1c-0.1,0-0.2,0.1-0.2,0.1
		C11.9,19.5,15.1,19.7,15.9,19z M15.8,13.2c-0.6,0-1.2,0-1.7,0.2c0,0-0.1,0.1-0.1,0.2c-0.1,0.8-0.2,1.7-0.3,2.5c0,0.1,0,0.3,0,0.4
		c0,0,0,0,0.1,0c0.6-0.3,1.2-0.6,1.8-0.9c0,0,0.1-0.1,0.1-0.2c0-0.3,0.1-0.5,0.1-0.8C15.7,14.1,15.8,13.7,15.8,13.2z M14,17
		c0.1,0,0.1,0.1,0.1,0.1c0.8,0.5,1.6,1,2.4,1.4c0.1,0,0.2,0,0.2,0c0.2-0.2,0.4-0.3,0.6-0.5c0.2-0.2,0.4-0.5,0.6-0.7
		c0,0-0.1-0.1-0.1-0.1c-0.6-0.4-1.2-0.7-1.8-1c-0.1,0-0.2,0-0.2,0c-0.3,0.1-0.6,0.3-0.9,0.4C14.6,16.7,14.3,16.9,14,17z M16.6,15.7
		c0.6,0.3,1.1,0.6,1.6,0.9c0.4-0.7,0.7-1.4,0.9-2.1c0,0,0,0,0,0C18.2,14.9,17.4,15.3,16.6,15.7z M18.8,13.9
		c-0.4-0.2-1.9-0.6-2.3-0.6c-0.1,0.6-0.1,1.2-0.2,1.8C17.1,14.7,17.9,14.3,18.8,13.9z"/>
	<path class="st1" d="M14,22.9c-1.9,0-3.7-0.6-5.2-1.7c-0.3-0.2-0.6-0.5-0.9-0.8c-0.2-0.2-0.2-0.4-0.1-0.5c0.1-0.1,0.4-0.1,0.5,0
		c0.9,0.9,2,1.5,3.2,1.9c1.4,0.4,2.8,0.5,4.2,0.2c1.9-0.4,3.5-1.4,4.7-2.9c0.9-1.2,1.5-2.5,1.7-4.1c0.1-0.5,0-1.1,0-1.6
		c0,0,0-0.1,0-0.1c0-0.2,0.1-0.3,0.3-0.3c0.2,0,0.3,0.1,0.3,0.3c0.1,0.7,0.1,1.4,0,2c-0.3,1.8-1,3.4-2.3,4.8
		c-1.3,1.4-2.8,2.3-4.6,2.7C15.3,22.8,14.6,22.9,14,22.9z"/>
</g>
</svg>
